<svg width="28" height="44" viewBox="0 0 28 44" fill="none" xmlns="http://www.w3.org/2000/svg">
<path d="M27.3894 10.5618C27.3895 9.18834 27.1191 7.82827 26.5936 6.5593C26.068 5.29033 25.2976 4.13733 24.3264 3.16615C23.3552 2.19498 22.2021 1.42466 20.9331 0.899198C19.6641 0.373734 18.304 0.103421 16.9305 0.103699H11.0516C9.67824 0.103606 8.31826 0.374051 7.04938 0.899589C5.7805 1.42513 4.62756 2.19546 3.65642 3.16661C2.68527 4.13776 1.91493 5.29069 1.3894 6.55957C0.863858 7.82845 0.593413 9.18843 0.593506 10.5618V30.4253C0.593506 33.9787 2.00507 37.3865 4.51767 39.8991C7.03027 42.4117 10.4381 43.8232 13.9914 43.8232C17.5448 43.8232 20.9526 42.4117 23.4652 39.8991C25.9778 37.3865 27.3894 33.9787 27.3894 30.4253V10.5618ZM3.29354 5.90782C4.10082 4.57114 5.2386 3.46477 6.59736 2.69523C7.95612 1.9257 9.49011 1.5189 11.0516 1.51401H16.9305C18.1188 1.51373 19.2955 1.74756 20.3934 2.20215C21.4913 2.65674 22.4889 3.32318 23.3292 4.16339C24.1694 5.00361 24.836 6.00114 25.2906 7.099C25.7453 8.19686 25.9792 9.37355 25.9791 10.5618V15.2377L14.0619 20.831L2.00381 15.1023V10.5618C2.00399 8.92194 2.44952 7.31286 3.29283 5.90641L3.29354 5.90782ZM25.9791 16.7954V26.4892L15.7155 21.6144L25.9791 16.7954ZM13.9914 42.4129C10.8132 42.4094 7.76617 41.1453 5.51882 38.8979C3.27148 36.6506 2.00736 33.6035 2.00381 30.4253V16.6635L25.9791 28.0504V30.4253C25.9753 33.6035 24.7111 36.6504 22.4638 38.8977C20.2165 41.145 17.1696 42.4092 13.9914 42.4129Z" fill="#FCFCFC"/>
</svg>
