<svg width="37" height="32" viewBox="0 0 37 32" fill="none" xmlns="http://www.w3.org/2000/svg">
<path d="M32.0573 19.728L29.1392 19.0929V17.9281C29.7891 17.6544 30.3876 17.2655 30.9047 16.7693C31.7163 15.9902 32.2559 15.0199 32.4793 13.9641C33.4401 13.8456 34.1852 13.0559 34.1852 12.1018C34.1852 11.6024 33.9797 11.1295 33.6167 10.7791V6.47262C33.6167 3.79613 31.3485 1.61876 28.5606 1.61876V1.63315C28.2274 1.24439 27.723 0.995616 27.1591 0.994629H27.1505C27.144 0.994629 27.1375 0.994629 27.131 0.994629C25.2651 0.994629 23.4954 1.70521 22.1464 2.9967C20.7639 4.32035 20.0025 6.07026 20.0025 7.92418V10.8019C19.6541 11.1499 19.4566 11.6147 19.4566 12.1019C19.4566 12.438 19.5496 12.7535 19.7113 13.0267C19.2032 12.8982 18.6742 12.8319 18.1343 12.8348C17.1281 12.842 16.18 13.0943 15.3491 13.5317V12.8335C15.3491 10.6782 13.9116 8.79511 11.7721 8.14785L11.5513 8.82043C13.3834 9.37468 14.6145 10.9874 14.6145 12.8335V13.9882C13.3606 14.8989 12.4852 16.2752 12.2623 17.8468C11.4606 18.356 10.5304 18.6249 9.56113 18.6249C8.25072 18.6249 7.01832 18.1349 6.09097 17.2453C5.16413 16.3549 4.6537 15.1718 4.6537 13.9138V13.0139C4.6537 11.4722 5.58774 10.0576 7.03698 9.39795L7.07804 9.37983C8.80956 8.61424 9.9284 6.93633 9.9284 5.10518V4.50192H9.19387V5.10518C9.19387 6.64686 8.2613 8.0607 6.8136 8.72009L6.77005 8.73934C5.03823 9.50577 3.91917 11.1836 3.91917 13.0139V18.5071C3.91917 19.2571 4.03581 19.9974 4.26491 20.7129C3.12499 21.1228 2.18464 21.9213 1.62213 22.96C1.07975 22.3226 0.775429 21.5183 0.775429 20.6874C0.775429 19.5731 1.30084 18.5408 2.21725 17.8547C2.75228 17.4533 3.0591 16.8521 3.0591 16.2054V8.98325C3.0591 7.31034 3.73774 5.73757 4.96999 4.5546C6.18918 3.38489 7.80919 2.73361 9.53183 2.72078C11.2576 2.70766 12.8909 3.35407 14.1368 4.54085C15.4086 5.75202 16.1089 7.3578 16.1089 9.06223V12.1233H16.8434V9.06223C16.8434 7.16839 16.066 5.38485 14.6543 4.04026C13.2682 2.72014 11.4483 2.00236 9.52602 2.01569C7.60955 2.03008 5.80707 2.75462 4.4506 4.05598C3.07959 5.37215 2.32456 7.12207 2.32456 8.98332V16.2055C2.32456 16.6337 2.12066 17.0323 1.76529 17.2989C0.669436 18.1192 0.0408936 19.3543 0.0408936 20.6875C0.0408936 21.8045 0.499684 22.8823 1.30687 23.6804C1.14593 24.1529 1.0641 24.6455 1.0641 25.1482V31.8868H10.0746V31.1816H1.79842V25.1482C1.79842 24.6531 1.89104 24.1697 2.07394 23.7112C2.57622 22.4476 3.69638 21.5145 5.0704 21.2153L8.22479 20.5289V19.1772C8.65722 19.2776 9.10484 19.33 9.56091 19.33C10.032 19.33 10.4951 19.2738 10.9426 19.1658V20.5289L12.2049 20.8037V22.4943C12.2049 23.9799 13.4639 25.1885 15.0114 25.1885H15.1135V24.4833H15.0114C13.869 24.4833 12.9395 23.5911 12.9395 22.4943V18.6377C12.9395 15.8471 15.2723 13.5603 18.1397 13.5399C19.5504 13.5294 20.8723 14.0484 21.8708 14.9998C22.8695 15.9514 23.4195 17.2194 23.4195 18.5701V22.4943C23.4195 23.5911 22.49 24.4833 21.3476 24.4833V25.1885C22.895 25.1885 24.154 23.9799 24.154 22.4943V19.9019L24.5479 19.816V23.0277C24.5479 23.2301 24.6819 23.4101 24.8816 23.4754C24.9339 23.4926 24.9875 23.5008 25.0406 23.5008C25.1904 23.5008 25.3356 23.435 25.4308 23.3168L26.8436 21.4286L28.2487 23.307L28.2564 23.3169C28.3852 23.4771 28.6059 23.5408 28.8056 23.4755C29.0052 23.4101 29.1393 23.2302 29.1393 23.0277V19.8158L31.895 20.4157C34.0671 20.8881 35.5842 22.7115 35.5842 24.85V31.1816H32.4626V25.2896H31.728V31.1816H25.8255V31.8868H36.3187V24.85C36.3187 23.6634 35.8939 22.4991 35.1226 21.5721C34.3511 20.6451 33.2625 19.9901 32.0573 19.728ZM5.57143 17.7439C5.59185 17.7635 5.6133 17.7818 5.63409 17.8011V18.4879C5.63409 19.1066 5.71459 19.7204 5.87127 20.3181L4.96941 20.5143C4.75999 19.8633 4.65356 19.1896 4.65356 18.5071V16.5874C4.90139 17.0054 5.20776 17.3945 5.57143 17.7439ZM7.49033 19.9659L6.58766 20.1623C6.44274 19.6157 6.36862 19.054 6.36862 18.4879V18.3798C6.72039 18.6125 7.09633 18.8044 7.49033 18.9536V19.9659ZM11.6772 19.9659V18.9366C11.857 18.8667 12.0329 18.7868 12.205 18.6989V20.0808L11.6772 19.9659ZM32.5814 13.2247C32.59 13.1001 32.5959 12.975 32.5959 12.849V12.702C32.9636 12.5707 33.2659 12.3112 33.4436 11.9792C33.448 12.0198 33.4506 12.0607 33.4506 12.1019C33.4506 12.631 33.0837 13.079 32.5814 13.2247ZM32.882 6.47276V11.2962C32.882 11.5356 32.7708 11.7502 32.5959 11.8962V11.5029C32.5959 10.9114 32.4129 10.3405 32.0663 9.85136C31.9368 9.66957 31.8361 9.46868 31.7673 9.25494C31.6992 9.04192 31.6646 8.82106 31.6646 8.59838V7.86784C31.6646 6.76279 30.7281 5.86379 29.5798 5.86379L28.7346 5.85779C28.8926 5.42455 28.974 4.97078 28.974 4.50214V2.73925C28.974 2.60182 28.9568 2.46826 28.9253 2.33992C31.138 2.5184 32.882 4.30314 32.882 6.47276ZM20.7369 7.92425C20.7369 6.25903 21.4216 4.68639 22.665 3.49609C23.8754 2.33731 25.4607 1.69985 27.132 1.69985C27.1377 1.69985 27.1436 1.69985 27.1493 1.69985H27.1582C27.7543 1.70091 28.2393 2.16716 28.2393 2.73925V4.50214C28.2393 5.0456 28.1099 5.56523 27.8549 6.04635C27.2446 7.19554 26.0319 7.90944 24.6901 7.90944C23.7158 7.90944 22.8005 8.27351 22.1129 8.93431C21.4245 9.59525 21.0454 10.4737 21.0454 11.4077V11.8338C20.8531 11.6598 20.7369 11.4138 20.7369 11.1447V7.92425ZM20.2065 11.9264C20.3883 12.2522 20.6809 12.5148 21.0454 12.6638V12.849C21.0454 12.9746 21.0502 13.0997 21.059 13.2243C20.5574 13.0781 20.1912 12.6305 20.1912 12.1019C20.1911 12.0426 20.1974 11.9842 20.2065 11.9264ZM21.9585 14.1278C21.8405 13.7143 21.7799 13.2848 21.7799 12.849V11.4077C21.7799 10.662 22.0826 9.96066 22.6325 9.43278C23.1815 8.90519 23.9122 8.61459 24.6901 8.61459C26.2323 8.61459 27.6327 7.83293 28.3987 6.56062L29.577 6.56894C30.323 6.56894 30.93 7.15161 30.93 7.86784V8.59838C30.93 8.8913 30.9755 9.18196 31.0654 9.46268C31.1562 9.74446 31.2888 10.0091 31.4593 10.2486C31.7224 10.6197 31.8614 11.0534 31.8614 11.5029V12.849C31.8614 14.1418 31.3372 15.357 30.3854 16.2707C29.4327 17.1845 28.1669 17.6878 26.821 17.6878C26.2082 17.6878 25.6106 17.5837 25.044 17.3782C24.6176 17.2244 24.2164 17.0153 23.849 16.7569C23.5577 15.9148 23.064 15.1433 22.3883 14.4995C22.2505 14.3681 22.1069 14.2444 21.9585 14.1278ZM24.154 19.1789V18.5702C24.154 18.288 24.1325 18.009 24.0911 17.7347C24.2399 17.8114 24.3922 17.8821 24.5477 17.9458V19.093L24.154 19.1789ZM25.2824 22.3068V20.0987L26.3398 20.8935L25.2824 22.3068ZM26.8435 20.3766L25.2822 19.2029V18.1938C25.7804 18.326 26.2961 18.3929 26.821 18.3929C27.3644 18.3929 27.8958 18.3198 28.4047 18.1813V19.203L26.8435 20.3766ZM28.4047 22.3068L27.3474 20.8934L28.4047 20.0987V22.3068Z" fill="#FCFCFC"/>
</svg>
