<svg width="35" height="33" viewBox="0 0 35 33" fill="none" xmlns="http://www.w3.org/2000/svg">
<path d="M30.4994 17.003V14.5964H31.6531C31.7277 14.5984 31.8019 14.5852 31.8713 14.5575C31.9408 14.5297 32.0042 14.4881 32.0576 14.4351C32.1111 14.382 32.1537 14.3186 32.1827 14.2485C32.2118 14.1784 32.2269 14.1031 32.227 14.027V9.14064C32.227 7.0611 30.6596 5.34125 28.7305 5.34125H22.2932V4.36623C22.2932 2.28669 20.7438 0.566772 18.8147 0.566772H13.8312C11.9021 0.566772 10.3437 2.28669 10.3437 4.36623V5.34125H4.33959C2.41055 5.34125 0.841797 7.0611 0.841797 9.14064V14.027C0.842087 14.1032 0.857292 14.1785 0.886519 14.2486C0.915745 14.3187 0.958404 14.3822 1.01199 14.4352C1.06558 14.4883 1.12901 14.5298 1.19856 14.5575C1.26812 14.5852 1.34239 14.5984 1.41702 14.5964H2.56942V23.742C2.56942 25.8216 4.14588 27.5242 6.07507 27.5242H19.0632C20.2839 30.5358 23.2194 32.7167 26.6386 32.7167C28.4627 32.7167 30.2345 32.0948 31.6727 30.9497C33.1109 29.8047 34.1329 28.2022 34.5765 26.3967C35.0201 24.5912 34.8598 22.6863 34.1212 20.9844C33.3825 19.2824 32.1078 17.8811 30.4994 17.003ZM11.4955 4.36623C11.4955 2.93469 12.5373 1.74203 13.8312 1.74203H18.8147C20.1086 1.74203 21.1414 2.93469 21.1414 4.36623V5.34125H11.4955V4.36623ZM1.99355 9.14071C1.99355 7.7091 3.0456 6.51651 4.33959 6.51651H28.7305C30.0243 6.51651 31.0753 7.7091 31.0753 9.14064V13.4211H20.2776V11.3137C20.273 11.153 20.2083 11.0002 20.0967 10.8866C19.9852 10.7731 19.8352 10.7075 19.6777 10.7034H12.9294C12.775 10.7087 12.6289 10.7757 12.5223 10.8898C12.4157 11.0039 12.3572 11.1561 12.3593 11.3137V13.4211H1.99355V9.14071ZM19.1259 11.8786V16.1389H13.5111V11.8786H19.1259ZM6.07507 26.349C4.78086 26.349 3.72118 25.1737 3.72118 23.742V14.5964H12.3593V16.7402C12.3589 16.8164 12.3735 16.8918 12.4021 16.9621C12.4307 17.0324 12.4728 17.0962 12.5259 17.1497C12.579 17.2032 12.6421 17.2453 12.7114 17.2735C12.7807 17.3018 12.8548 17.3156 12.9294 17.3142H19.6777C19.9957 17.3142 20.2776 17.0644 20.2776 16.7402V14.5964H29.3477V16.4852C28.4777 16.1756 27.563 16.0172 26.6417 16.0164C22.1309 16.0164 18.4596 19.7664 18.4596 24.3692C18.4606 25.0361 18.5379 25.7005 18.69 26.349H6.07507ZM26.6389 31.5361C25.2487 31.5361 23.8898 31.1155 22.7339 30.3274C21.578 29.5393 20.6771 28.4191 20.1451 27.1086C19.6131 25.798 19.4739 24.3559 19.7451 22.9647C20.0164 21.5734 20.6858 20.2954 21.6688 19.2924C22.6518 18.2893 23.9042 17.6062 25.2676 17.3295C26.6311 17.0527 28.0443 17.1948 29.3287 17.7376C30.613 18.2805 31.7108 19.1997 32.4831 20.3792C33.2554 21.5587 33.6677 22.9454 33.6677 24.3639C33.6656 26.2655 32.9243 28.0886 31.6066 29.4332C30.2888 30.7778 28.5021 31.5341 26.6386 31.5361H26.6389Z" fill="#FCFCFC"/>
</svg>
