<svg width="37" height="37" viewBox="0 0 37 37" fill="none" xmlns="http://www.w3.org/2000/svg">
<path d="M24.2245 10.9435C23.6042 10.9445 22.9849 10.9946 22.3724 11.0934C20.671 9.36346 18.5031 8.16597 16.1329 7.64692L19.2736 4.15253C19.3493 4.06987 19.4002 3.96752 19.4203 3.85725C19.4405 3.74699 19.4291 3.63327 19.3875 3.52918L18.1887 0.532273C18.1443 0.420749 18.0674 0.325131 17.9681 0.257805C17.8687 0.190479 17.7514 0.154547 17.6313 0.154663H9.23998C9.11994 0.154547 9.00263 0.190479 8.90324 0.257805C8.80386 0.325131 8.72698 0.420749 8.68256 0.532273L7.4838 3.52918C7.44222 3.63327 7.43085 3.74699 7.45099 3.85725C7.47114 3.96752 7.52198 4.06987 7.59768 4.15253L10.7384 7.64692C7.70704 8.31079 5.02788 10.0714 3.21572 12.5906C1.40357 15.1098 0.586234 18.2097 0.920769 21.2949C1.2553 24.38 2.71811 27.2328 5.02812 29.3049C7.33814 31.3771 10.3324 32.5226 13.4357 32.5212C14.056 32.5202 14.6753 32.4701 15.2877 32.3714C16.4503 33.5628 17.8405 34.5084 19.3757 35.1519C20.9109 35.7955 22.5599 36.1238 24.2245 36.1175C27.5628 36.1175 30.7643 34.7914 33.1249 32.4309C35.4854 30.0704 36.8115 26.8688 36.8115 23.5305C36.8115 20.1922 35.4854 16.9907 33.1249 14.6302C30.7643 12.2696 27.5628 10.9435 24.2245 10.9435ZM16.8401 1.35343H17.2237L17.943 3.15157H16.1209L16.8401 1.35343ZM17.4875 4.35033L14.7723 7.36522L15.6773 4.35033H17.4875ZM15.5455 1.35343L14.8262 3.15157H12.0451L11.3258 1.35343H15.5455ZM14.4306 4.35033L13.5256 7.35323H13.3457L12.4407 4.35033H14.4306ZM9.64756 1.35343H10.0312L10.7504 3.15157H8.92831L9.64756 1.35343ZM9.38384 4.35033H11.194L12.099 7.36522L9.38384 4.35033ZM13.4357 31.3225C10.5084 31.3307 7.69046 30.2115 5.56658 28.1971C3.44271 26.1827 2.17606 23.4279 2.02954 20.5043C1.88301 17.5808 2.86787 14.7131 4.77968 12.4964C6.6915 10.2798 9.38346 8.8844 12.2968 8.59994C13.0543 8.52801 13.817 8.52801 14.5745 8.59994C17.3077 8.8736 19.8486 10.1302 21.7251 12.1363C23.7204 14.2416 24.8299 17.0336 24.8239 19.9342C24.8316 21.9905 24.2781 24.0099 23.2229 25.7748C22.1678 27.5397 20.651 28.9833 18.8361 29.9499C18.3555 29.5502 17.9212 29.0978 17.5414 28.6013C19.1772 27.8174 20.5592 26.5887 21.5291 25.0559C22.499 23.5231 23.0177 21.7481 23.0257 19.9342C23.0229 17.3917 22.0116 14.954 20.2137 13.1562C18.4158 11.3583 15.9782 10.347 13.4357 10.3441C10.9149 10.3406 8.49411 11.3301 6.69762 13.0985C4.90113 14.8668 3.87349 17.2716 3.83723 19.7922C3.80098 22.3127 4.75902 24.7461 6.50391 26.5654C8.2488 28.3846 10.6401 29.4434 13.1599 29.5123C13.4962 30.1345 13.8831 30.7279 14.3167 31.2865C14.029 31.3045 13.7353 31.3225 13.4357 31.3225ZM25.0876 15.1811C27.232 15.3963 29.2113 16.4282 30.6155 18.0631C32.0197 19.6979 32.7411 21.8104 32.6301 23.9626C32.5192 26.1149 31.5844 28.1419 30.0195 29.6237C28.4546 31.1055 26.3796 31.9284 24.2245 31.9219C22.705 31.9268 21.2137 31.512 19.915 30.7231C22.4919 29.1779 24.4304 26.761 25.3793 23.91C26.3281 21.059 26.2247 17.9624 25.0876 15.1811ZM16.8821 27.5823C16.1919 26.3436 15.8308 24.9486 15.8332 23.5305C15.8411 21.9166 16.311 20.3387 17.1873 18.9834C18.0636 17.6281 19.3096 16.552 20.7781 15.8824C21.4682 17.1212 21.8294 18.5162 21.827 19.9342C21.8191 21.5481 21.3492 23.126 20.4729 24.4814C19.5966 25.8367 18.3506 26.9127 16.8821 27.5823ZM12.5725 28.2836C10.4282 28.0685 8.44882 27.0365 7.04463 25.4017C5.64044 23.7668 4.91908 21.6544 5.03004 19.5021C5.141 17.3499 6.07579 15.3228 7.64067 13.841C9.20555 12.3593 11.2805 11.5364 13.4357 11.5429C14.9552 11.538 16.4465 11.9528 17.7452 12.7417C15.1682 14.2869 13.2298 16.7038 12.2809 19.5548C11.332 22.4058 11.4355 25.5023 12.5725 28.2836ZM24.2245 34.9188C21.6894 34.9202 19.2264 34.0752 17.226 32.5177C15.2257 30.9603 13.8026 28.7796 13.1824 26.3216C12.5622 23.8635 12.7804 21.2687 13.8024 18.9487C14.8244 16.6287 16.5917 14.7163 18.8241 13.5149C19.3047 13.9146 19.739 14.367 20.1187 14.8635C18.483 15.6474 17.101 16.8761 16.1311 18.4089C15.1612 19.9417 14.6425 21.7166 14.6344 23.5305C14.6373 26.0731 15.6486 28.5107 17.4464 30.3086C19.2443 32.1065 21.6819 33.1178 24.2245 33.1206C26.7453 33.1242 29.166 32.1346 30.9625 30.3663C32.759 28.5979 33.7867 26.1931 33.8229 23.6726C33.8592 21.1521 32.9011 18.7187 31.1562 16.8994C29.4114 15.0801 27.0201 14.0214 24.5002 13.9524C24.164 13.3303 23.7771 12.7369 23.3434 12.1782C23.6311 12.1603 23.9248 12.1423 24.2245 12.1423C27.2449 12.1423 30.1415 13.3421 32.2772 15.4778C34.4129 17.6135 35.6127 20.5102 35.6127 23.5305C35.6127 26.5509 34.4129 29.4475 32.2772 31.5832C30.1415 33.7189 27.2449 34.9188 24.2245 34.9188Z" fill="#FCFCFC"/>
</svg>
