<svg width="27" height="28" viewBox="0 0 27 28" fill="none" xmlns="http://www.w3.org/2000/svg">
<path d="M17.7121 9.91656C17.5689 9.39878 17.2337 8.94387 16.765 8.63107C17.0811 8.42078 17.3387 8.14402 17.5164 7.8236C17.6941 7.50318 17.7869 7.14829 17.7871 6.7882C17.7873 6.42811 17.6949 6.07314 17.5175 5.75257C17.3401 5.43199 17.0828 5.15501 16.7668 4.94445C17.1888 4.66447 17.5035 4.26772 17.6655 3.81152C17.8276 3.35532 17.8285 2.8633 17.6682 2.40657C17.5079 1.94984 17.1947 1.55205 16.7739 1.27069C16.353 0.98933 15.8463 0.838969 15.327 0.841336H3.26321C2.7437 0.839566 2.23702 0.99043 1.81627 1.27216C1.39552 1.55389 1.08246 1.95191 0.922265 2.40881C0.762066 2.8657 0.76301 3.35783 0.924962 3.8142C1.08691 4.27056 1.4015 4.66756 1.82333 4.94791C1.50746 5.15804 1.25018 5.43462 1.07272 5.7548C0.895257 6.07499 0.802707 6.4296 0.802707 6.78938C0.802707 7.14915 0.895257 7.50377 1.07272 7.82395C1.25018 8.14414 1.50746 8.42071 1.82333 8.63085C1.50745 8.84121 1.25017 9.11798 1.07273 9.43833C0.895284 9.75869 0.802746 10.1134 0.802746 10.4734C0.802746 10.8333 0.895284 11.188 1.07273 11.5084C1.25017 11.8287 1.50745 12.1055 1.82333 12.3159C1.50741 12.5263 1.25012 12.8031 1.07265 13.1235C0.895192 13.4439 0.802646 13.7987 0.802646 14.1587C0.802646 14.5186 0.895192 14.8735 1.07265 15.1939C1.25012 15.5143 1.50741 15.7911 1.82333 16.0015C1.50746 16.2119 1.2502 16.4887 1.07277 16.8091C0.895341 17.1295 0.802811 17.4843 0.802811 17.8443C0.802811 18.2042 0.895341 18.559 1.07277 18.8794C1.2502 19.1998 1.50746 19.4767 1.82333 19.6871C1.50744 19.8975 1.25017 20.1743 1.07273 20.4947C0.895291 20.8151 0.802756 21.1699 0.802756 21.5299C0.802756 21.8899 0.895291 22.2447 1.07273 22.5651C1.25017 22.8855 1.50744 23.1623 1.82333 23.3727C1.40134 23.6526 1.08656 24.0494 0.9245 24.5056C0.762436 24.9618 0.761477 25.4539 0.921762 25.9106C1.08205 26.3674 1.39527 26.7652 1.81617 27.0465C2.23706 27.3279 2.74382 27.4782 3.26321 27.4758H15.327C15.7852 27.4792 16.2352 27.363 16.6251 27.1404C16.9184 27.1662 17.2155 27.1836 17.516 27.1836C19.9769 27.185 22.3389 26.2883 24.0886 24.6885C25.8383 23.0886 26.8344 20.915 26.8602 18.64C26.886 16.365 25.9396 14.1724 24.2266 12.539C22.5136 10.9056 20.1725 9.96321 17.7121 9.91678V9.91656ZM24.5756 18.2616C24.5056 16.776 23.8873 15.3575 22.8237 14.2421L23.7729 13.3649C25.0864 14.7142 25.8452 16.4474 25.9167 18.2616H24.5756ZM11.9069 24.3351L12.8558 23.4579C13.9756 24.3704 15.3802 24.9302 16.8666 25.0563V26.3003C15.0242 26.1691 13.2804 25.4781 11.9069 24.3351ZM9.13188 19.1254H10.4767C10.6075 20.5031 11.2096 21.8064 12.1958 22.8463L11.247 23.7236C10.0117 22.4491 9.26787 20.8321 9.13188 19.1254ZM22.1623 13.632C20.9507 12.6498 19.4112 12.0817 17.801 12.0229V10.783C19.7666 10.8433 21.6465 11.5413 23.1111 12.7548L22.1623 13.632ZM16.8666 10.801V12.0449C15.3675 12.1722 13.952 12.7405 12.8279 13.6663L11.8748 12.7926C13.2529 11.634 15.0095 10.9332 16.8666 10.801ZM11.2185 13.4075L12.1716 14.2808C11.1301 15.3906 10.5255 16.7937 10.4564 18.2616H9.1153C9.18604 16.467 9.92955 14.7509 11.2185 13.4075ZM17.801 25.0785C19.3957 25.0203 20.9216 24.4625 22.1283 23.4969L23.0774 24.3743C21.6174 25.571 19.7511 26.2586 17.801 26.3183V25.0785ZM17.516 24.2205C16.3031 24.2205 15.1174 23.888 14.1088 23.2651C13.1003 22.6421 12.3142 21.7566 11.85 20.7206C11.3858 19.6846 11.2643 18.5446 11.5009 17.4447C11.7375 16.3449 12.3215 15.3346 13.1792 14.5416C14.0368 13.7487 15.1295 13.2086 16.3192 12.9898C17.5088 12.7711 18.7419 12.8833 19.8625 13.3124C20.9831 13.7416 21.9409 14.4683 22.6148 15.4007C23.2886 16.3331 23.6483 17.4293 23.6483 18.5507C23.6465 20.0538 22.9998 21.4949 21.8502 22.5578C20.7006 23.6207 19.1418 24.2186 17.516 24.2204V24.2205ZM1.73706 3.10885C1.73743 2.924 1.77722 2.74104 1.85414 2.57043C1.93106 2.39981 2.04361 2.24489 2.18535 2.11452C2.32708 1.98415 2.49523 1.88089 2.68016 1.81064C2.8651 1.7404 3.06319 1.70455 3.26313 1.70515H15.3269C15.7295 1.70515 16.1157 1.85304 16.4005 2.11628C16.6852 2.37953 16.8452 2.73656 16.8452 3.10885C16.8452 3.48113 16.6852 3.83817 16.4005 4.10141C16.1157 4.36466 15.7295 4.51254 15.3269 4.51254H3.26321C3.06327 4.51315 2.86516 4.47731 2.68021 4.40707C2.49527 4.33683 2.32712 4.23358 2.18537 4.1032C2.04363 3.97283 1.93108 3.81791 1.85415 3.64729C1.77722 3.47667 1.73743 3.2937 1.73706 3.10885ZM1.73706 6.78006C1.73743 6.59521 1.77722 6.41225 1.85414 6.24163C1.93106 6.07102 2.04361 5.91609 2.18535 5.78572C2.32708 5.65535 2.49523 5.5521 2.68016 5.48185C2.8651 5.41161 3.06319 5.37576 3.26313 5.37636H15.3269C15.7295 5.37636 16.1157 5.52425 16.4005 5.78749C16.6852 6.05074 16.8452 6.40777 16.8452 6.78006C16.8452 7.15234 16.6852 7.50938 16.4005 7.77262C16.1157 8.03586 15.7295 8.18375 15.3269 8.18375H3.26321C3.06327 8.18436 2.86516 8.14852 2.68021 8.07828C2.49527 8.00804 2.32712 7.90478 2.18537 7.77441C2.04363 7.64404 1.93108 7.48912 1.85415 7.3185C1.77722 7.14787 1.73743 6.96491 1.73706 6.78006ZM1.73706 10.4513C1.73743 10.2664 1.77722 10.0835 1.85414 9.91284C1.93106 9.74223 2.04361 9.5873 2.18535 9.45693C2.32708 9.32656 2.49523 9.2233 2.68016 9.15306C2.8651 9.08282 3.06319 9.04697 3.26313 9.04757H15.3269C15.6298 9.04726 15.926 9.13032 16.1778 9.28618C16.4295 9.44204 16.6253 9.66364 16.7404 9.92276C14.8494 10.0681 13.051 10.742 11.5843 11.855H3.26321C3.06327 11.8556 2.86516 11.8197 2.68021 11.7495C2.49527 11.6793 2.32712 11.576 2.18537 11.4456C2.04363 11.3153 1.93108 11.1603 1.85415 10.9897C1.77722 10.8191 1.73743 10.6361 1.73706 10.4513ZM1.73706 14.1585C1.73706 13.3805 2.42169 12.7188 3.26313 12.7188H10.6034C9.80273 13.5826 9.16793 14.5184 8.74834 15.5982H3.26321C2.42169 15.5982 1.73706 14.9365 1.73706 14.1585ZM1.73706 17.8657C1.73743 17.6808 1.77722 17.4979 1.85414 17.3272C1.93106 17.1566 2.04361 17.0017 2.18535 16.8713C2.32708 16.741 2.49523 16.6377 2.68016 16.5675C2.8651 16.4972 3.06319 16.4614 3.26313 16.462H8.45893C8.26765 17.1514 8.17204 17.8605 8.17443 18.5722C8.17443 18.8097 8.18525 19.0534 8.20557 19.2694H3.26321C3.06327 19.27 2.86516 19.2341 2.68021 19.1639C2.49527 19.0937 2.32712 18.9904 2.18537 18.86C2.04363 18.7297 1.93108 18.5747 1.85415 18.4041C1.77722 18.2335 1.73743 18.0505 1.73706 17.8657ZM1.73706 21.5369C1.73743 21.352 1.77722 21.1691 1.85414 20.9985C1.93106 20.8278 2.04361 20.6729 2.18535 20.5425C2.32708 20.4122 2.49523 20.3089 2.68016 20.2387C2.8651 20.1684 3.06319 20.1326 3.26313 20.1332H8.32922C8.53019 21.1238 8.91786 22.074 9.47455 22.9406H3.26321C3.06327 22.9412 2.86516 22.9053 2.68021 22.8351C2.49527 22.7649 2.32712 22.6616 2.18537 22.5312C2.04363 22.4009 1.93108 22.2459 1.85415 22.0753C1.77722 21.9047 1.73743 21.7217 1.73706 21.5369ZM3.26313 26.6118C2.86045 26.6118 2.47427 26.4639 2.18954 26.2006C1.9048 25.9374 1.74484 25.5804 1.74484 25.2081C1.74484 24.8358 1.9048 24.4788 2.18954 24.2155C2.47427 23.9523 2.86045 23.8044 3.26313 23.8044H10.1071C11.1558 25.1001 12.5718 26.0359 14.206 26.6118H3.26313ZM23.7426 23.7676L22.7938 22.8902C23.8045 21.8436 24.4224 20.5231 24.5552 19.1254H25.9001C25.7626 20.8523 25.003 22.4868 23.7427 23.7676H23.7426Z" fill="#FCFCFC"/>
</svg>
