<svg width="30" height="27" viewBox="0 0 30 27" fill="none" xmlns="http://www.w3.org/2000/svg">
<path d="M29.5494 13.1583C29.4206 5.78232 22.9244 -0.0855565 15.0397 0.0520717C7.15501 0.1897 0.867555 6.28072 0.996304 13.6567C1.11266 20.3228 6.42983 25.7569 13.2724 26.6396L13.1095 17.307L9.48462 17.3703L9.41723 13.5098L13.0421 13.4465L12.9908 10.5041C12.9323 7.15688 15.0315 5.27078 18.2925 5.21386C19.8545 5.1866 21.4929 5.41893 21.4929 5.41893L21.5502 8.70563L19.75 8.73705C17.9765 8.76801 17.4414 9.80714 17.4598 10.8633L17.5035 13.3686L21.4631 13.2995L20.8975 17.1711L17.5709 17.2292L17.7338 26.5618C24.5415 25.4408 29.6657 19.8244 29.5494 13.1583Z" fill="#1877F2"/>
</svg>
