<svg width="86" height="32" viewBox="0 0 86 32" fill="none" xmlns="http://www.w3.org/2000/svg">
<path d="M66.146 8.55546C66.4819 8.29017 66.6499 8.15753 66.8179 8.02489C69.1526 6.06841 72.1425 6.28395 74.1413 8.6052C74.3429 8.83732 74.4437 8.8539 74.6452 8.65494C74.7796 8.50572 74.9308 8.38965 75.0651 8.24043C76.6273 6.73162 78.6933 6.28395 80.6249 7.12955C82.6573 8.02489 83.7491 9.60001 83.7659 11.8052C83.7995 16.5637 83.7827 21.3057 83.7827 26.0643C83.7827 27.7555 82.7245 28.8166 81.028 28.8166C80.3562 28.8166 79.6843 28.7669 79.0124 28.8332C78.3237 28.8995 78.1222 28.684 78.1222 27.971C78.1558 23.3285 78.139 18.686 78.139 14.0435C78.139 13.8446 78.139 13.6622 78.139 13.4632C78.1222 12.3855 77.6855 11.9378 76.644 11.8881C75.7034 11.8384 75.0483 12.4021 74.9476 13.3472C74.9308 13.5627 74.9476 13.7948 74.9476 14.0104C74.9476 18.0228 74.9476 22.0187 74.9476 26.0311C74.9476 27.7886 73.923 28.8166 72.1425 28.8C71.2355 28.7834 70.0093 29.1979 69.4886 28.6176C69.0351 28.1202 69.3374 26.943 69.3374 26.0643C69.3374 21.9523 69.3374 17.8238 69.3374 13.7119C69.3374 12.2529 68.38 11.5068 67.137 12.0042C66.3644 12.3192 66.1124 12.9327 66.1124 13.7285C66.1292 17.5751 66.1124 21.4052 66.1124 25.2518C66.1124 25.5503 66.1124 25.8653 66.1124 26.1637C66.062 27.772 65.0206 28.7834 63.4081 28.8C62.7362 28.8166 62.0644 28.7503 61.3925 28.8166C60.6702 28.8829 60.4519 28.684 60.4687 27.9213C60.5023 21.4052 60.4855 14.8891 60.4855 8.35649C60.4855 8.07463 60.5023 7.80934 60.4855 7.52748C60.4519 7.16271 60.603 7.04665 60.9726 7.04665C62.5179 7.06323 64.0464 7.06323 65.5917 7.04665C65.978 7.04665 66.1628 7.14613 66.1292 7.56064C66.0956 7.85908 66.1292 8.12437 66.146 8.55546Z" fill="#02B9EF"/>
<path d="M30.5367 17.5421C30.5367 19.8136 30.5367 22.0685 30.5367 24.34C30.5199 27.2913 28.9578 28.8167 25.968 28.8333C24.6578 28.8333 23.3308 28.8498 22.0207 28.8333C19.3668 28.8001 17.4183 27.0592 17.284 24.4395C17.1832 22.5659 17.1664 20.6758 17.2672 18.8022C17.4015 16.1162 19.4844 14.226 22.239 14.1929C22.9613 14.1763 23.7004 14.1929 24.4226 14.1929C25.1281 14.1763 25.3969 13.7783 25.3801 13.1151C25.3801 12.4519 25.0777 12.1535 24.4058 12.1866C23.65 12.2032 22.8941 12.2032 22.1383 12.1866C20.2906 12.1535 19.266 11.1587 19.2828 9.36798C19.2828 8.63845 18.9469 7.66021 19.434 7.22912C19.8539 6.86435 20.8113 7.09648 21.5336 7.09648C23.4148 7.0799 25.2793 7.09648 27.1605 7.09648C29.1594 7.09648 30.5199 8.43948 30.5367 10.4291C30.5535 12.7835 30.5367 15.1711 30.5367 17.5421ZM25.3969 21.3058C25.3969 21.0239 25.3969 20.7587 25.3969 20.4768C25.3969 18.7856 25.3969 18.7856 23.6836 18.8519C22.8269 18.8851 22.3566 19.3162 22.3398 20.1949C22.323 20.8913 22.323 21.5711 22.3398 22.2675C22.3566 23.4612 22.8941 23.7763 24.641 23.826C25.9344 23.8592 25.2793 22.9638 25.3969 22.4664C25.464 22.1017 25.3801 21.6872 25.3969 21.3058Z" fill="#06306F"/>
<path d="M45.486 15.7348C45.486 18.2716 45.5196 20.8249 45.4692 23.3617C45.4356 25.3182 44.9653 27.0923 43.0504 28.1368C42.2778 28.5513 41.4379 28.7835 40.5645 28.8C38.6329 28.8332 36.7012 28.8001 34.7696 28.8332C34.2993 28.8332 34.1985 28.6674 34.2153 28.2529C34.2489 27.5565 34.1985 26.8767 34.2321 26.1804C34.2657 24.8539 35.2903 23.8425 36.634 23.7928C37.5075 23.7596 38.3641 23.7762 39.2375 23.7928C39.943 23.7928 40.3293 23.5109 40.3293 22.7648C40.3293 22.0021 39.9598 21.7368 39.2543 21.7203C38.0786 21.6871 36.9028 21.8529 35.7438 21.5213C33.745 20.941 32.2836 19.2995 32.2332 17.2602C32.1325 14.027 32.1997 10.7938 32.1829 7.56067C32.1829 7.1959 32.3004 7.07984 32.67 7.09642C34.0473 7.113 35.4079 7.12958 36.7852 7.09642C37.3899 7.07984 37.3059 7.41145 37.3059 7.77622C37.3059 10.2135 37.3059 12.6342 37.3059 15.0716C37.3059 16.1327 37.8098 16.6964 38.7504 16.7296C39.859 16.7627 40.3461 16.3151 40.3461 15.2042C40.3461 12.7503 40.3629 10.2798 40.3293 7.82596C40.3293 7.24565 40.4805 7.07984 41.0684 7.09642C42.2946 7.14616 43.5375 7.16274 44.7637 7.09642C45.4356 7.06326 45.5364 7.31197 45.5196 7.89228C45.4692 10.4954 45.486 13.1151 45.486 15.7348Z" fill="#06306F"/>
<path d="M2.68749 19.4985C2.68749 16.7959 2.68749 14.0767 2.68749 11.3741C2.68749 8.72128 4.33359 7.06324 7.03788 7.0964C8.80156 7.11298 10.5652 6.89744 12.3121 7.22905C14.5461 7.66013 15.957 9.3679 15.9738 11.6394C15.9906 14.0436 15.9738 16.4477 15.9738 18.8518C15.9738 21.8695 14.1766 23.7099 11.1195 23.7928C10.1957 23.8259 9.27187 23.8094 8.34804 23.7928C7.92812 23.7762 7.74335 23.9088 7.76015 24.3565C7.79374 25.0197 7.77695 25.6829 7.76015 26.3461C7.72656 27.772 6.70195 28.8 5.27421 28.8166C4.43437 28.8332 3.37616 29.1648 2.83866 28.684C2.33476 28.2363 2.70429 27.1752 2.68749 26.3793C2.6707 24.0912 2.68749 21.7866 2.68749 19.4985ZM7.76015 15.4363C7.76015 15.9669 7.76015 16.4809 7.76015 17.0114C7.76015 18.885 7.76015 18.885 9.6582 18.7192C10.4812 18.6529 10.8676 18.2549 10.8844 17.4425C10.9012 16.514 10.8508 15.5689 10.9012 14.6404C11.0019 11.9544 10.498 12.2197 8.28085 12.2031C7.87773 12.2031 7.74335 12.3192 7.74335 12.7171C7.77695 13.6125 7.76015 14.5244 7.76015 15.4363Z" fill="#06306F"/>
<path d="M50.2393 19.5317C50.2393 17.3265 50.2225 15.1047 50.2561 12.8996C50.2561 12.3856 50.1386 12.17 49.5675 12.1866C48.8116 12.2198 47.8038 12.4353 47.3839 12.0706C46.8632 11.5897 47.2663 10.5617 47.1991 9.76589C47.1991 9.71615 47.1991 9.64983 47.1991 9.60009C47.1991 8.82081 46.9471 7.90889 47.2831 7.32858C47.619 6.74827 48.6436 7.11304 49.3659 6.93065C50.7936 6.56589 51.8686 5.75345 52.7421 4.62599C53.3468 3.8633 54.1026 3.31615 55.0768 3.13376C55.5975 3.03428 55.9167 3.1006 55.8831 3.76382C55.8327 4.69231 55.8831 5.63739 55.8663 6.58247C55.8495 6.9804 56.0007 7.11304 56.4038 7.09646C57.0757 7.07988 57.7475 7.11304 58.4194 7.07988C58.8225 7.0633 58.9569 7.21252 58.9401 7.61045C58.9233 8.97003 58.9233 10.313 58.9401 11.6726C58.9401 12.054 58.8393 12.2529 58.4194 12.2032C58.3354 12.1866 58.2514 12.2032 58.1675 12.2032C57.4284 12.2695 56.4038 11.8716 56.0175 12.369C55.6479 12.8332 55.8831 13.7949 55.8831 14.541C55.8831 19.0509 55.8663 23.5441 55.8999 28.054C55.8999 28.684 55.7319 28.883 55.0936 28.8332C54.4889 28.7835 53.8675 28.8332 53.246 28.8167C51.4319 28.7503 50.2393 27.54 50.2393 25.7493C50.2393 23.6768 50.2393 21.6042 50.2393 19.5317Z" fill="#02B9EF"/>
</svg>
