<svg width="115" height="27" viewBox="0 0 115 27" fill="none" xmlns="http://www.w3.org/2000/svg">
<g clip-path="url(#clip0_1_23798)">
<path d="M7.43797 7.22509L6.48267 11.0622L11.9506 7.20325L8.37447 21.7639L12.0064 21.7672L17.2894 0.260498" fill="#3395FF"/>
<path d="M1.5528 15.6459L0.048584 21.7672H7.49265L10.5387 9.31472L1.5528 15.6459ZM27.4108 10.2566C27.2289 10.9946 26.8783 11.5367 26.3554 11.8829C25.8338 12.2284 25.1017 12.4019 24.1567 12.4019H21.1544L22.2085 8.11269H25.2109C26.1547 8.11269 26.8031 8.28479 27.1549 8.6356C27.5067 8.98641 27.5916 9.52256 27.4108 10.2639M30.5193 10.1712C30.9015 8.62236 30.7438 7.43093 30.045 6.59693C29.3475 5.76954 28.1235 5.35254 26.3767 5.35254H19.6762L15.6427 21.7745H18.898L20.5236 15.1554H22.6586C23.1377 15.1554 23.515 15.2414 23.7904 15.4069C24.0664 15.579 24.2283 15.8769 24.278 16.3071L24.8591 21.7745H28.3467L27.7814 16.6778C27.6662 15.5393 27.1888 14.8708 26.35 14.6722C27.4193 14.3346 28.3152 13.772 29.037 12.991C29.7537 12.2156 30.2658 11.2439 30.5193 10.1778M38.4323 15.8967C38.1593 17.0087 37.7408 17.8494 37.1749 18.4385C36.6084 19.0276 35.9315 19.3188 35.1418 19.3188C34.3375 19.3188 33.7922 19.0342 33.5041 18.4583C33.2154 17.8825 33.2057 17.0485 33.4738 15.9563C33.7419 14.8642 34.1695 14.0103 34.7578 13.3947C35.3462 12.7791 36.034 12.4714 36.8237 12.4714C37.6122 12.4714 38.152 12.7692 38.425 13.3603C38.704 13.954 38.7101 14.8033 38.4371 15.9086L38.4323 15.8967ZM39.8588 10.0852L39.4512 11.7466C39.2754 11.1509 38.9339 10.6743 38.4292 10.3168C37.9234 9.96604 37.2974 9.78732 36.5508 9.78732C35.6349 9.78732 34.7554 10.0455 33.9123 10.5618C33.0692 11.078 32.3293 11.8061 31.6985 12.746C31.0677 13.686 30.6067 14.7516 30.3095 15.9497C30.0183 17.1544 29.9577 18.2068 30.1336 19.1202C30.3155 20.0403 30.6977 20.7419 31.286 21.2317C31.8804 21.7281 32.6386 21.973 33.5666 21.973C34.304 21.9771 35.0331 21.8031 35.7016 21.4634C36.3626 21.138 36.9505 20.6591 37.4242 20.0601L36.9996 21.7917H40.1476L43.0219 10.0911H39.8679L39.8588 10.0852ZM54.3339 10.0852H45.1794L44.5395 12.6931H49.8661L42.8242 19.332L42.2225 21.7811H51.6724L52.3123 19.1732H46.6048L53.7547 12.435M62.3918 15.8769C62.1086 17.0286 61.6882 17.8944 61.1332 18.4583C60.5783 19.0276 59.9062 19.3122 59.1171 19.3122C57.4673 19.3122 56.9251 18.1671 57.4879 15.8769C57.7669 14.7384 58.1891 13.8825 58.7532 13.306C59.3173 12.7275 60.0008 12.4389 60.8045 12.4389C61.593 12.4389 62.1255 12.7255 62.3997 13.3027C62.6738 13.8786 62.6714 14.7371 62.3918 15.8756M64.2345 10.5253C63.5097 10.0329 62.5847 9.78666 61.4565 9.78666C60.3144 9.78666 59.2572 10.0316 58.2843 10.5214C57.3155 11.0081 56.464 11.7347 55.7975 12.6435C55.1121 13.5635 54.619 14.6424 54.3163 15.8736C54.0191 17.1001 53.9827 18.177 54.2132 19.099C54.4437 20.0191 54.9289 20.7273 55.6568 21.2171C56.3907 21.7109 57.3248 21.9565 58.4711 21.9565C59.5993 21.9565 60.6486 21.7089 61.613 21.2165C62.5774 20.7214 63.4023 20.0184 64.0877 19.0918C64.7731 18.1691 65.2644 17.0928 65.5676 15.8616C65.8709 14.6305 65.9073 13.5556 65.6768 12.6315C65.4463 11.7115 64.9672 11.0032 64.2454 10.5101M75.4725 13.2107L76.2791 10.0269C76.0062 9.87469 75.6484 9.79526 75.1995 9.79526C74.4777 9.79526 73.7863 9.98986 73.1191 10.3844C72.5453 10.7193 72.0576 11.1919 71.6452 11.7836L72.0637 10.0693L71.1496 10.0733H68.9054L66.0122 21.7692H69.2045L70.7057 15.6551C70.924 14.7662 71.317 14.0666 71.8842 13.5701C72.4482 13.0717 73.1518 12.8222 74.001 12.8222C74.5226 12.8222 75.0078 12.9526 75.4688 13.2127M84.3546 15.9331C84.0817 17.0253 83.6692 17.8593 83.1051 18.4351C82.5411 19.0137 81.8617 19.3022 81.0732 19.3022C80.2847 19.3022 79.7449 19.011 79.4598 18.4285C79.1687 17.8427 79.1626 16.9988 79.4356 15.8895C79.7085 14.7808 80.127 13.9302 80.7033 13.3411C81.2795 12.7474 81.9588 12.4508 82.7473 12.4508C83.5237 12.4508 84.0453 12.7553 84.3243 13.3709C84.6033 13.9865 84.6094 14.8403 84.3413 15.9325M86.5733 10.5445C85.982 10.0283 85.2268 9.77011 84.311 9.77011C83.5085 9.77011 82.7437 9.96868 82.0182 10.3698C81.2934 10.7703 80.7051 11.3163 80.2532 12.0074L80.2641 11.9279L80.7997 10.068H77.6821L76.8875 13.3047L76.8632 13.4172L73.5879 26.7507H76.7844L78.4342 20.039C78.598 20.636 78.9315 21.1046 79.441 21.4435C79.9505 21.7811 80.5795 21.9486 81.3274 21.9486C82.2554 21.9486 83.1409 21.7036 83.981 21.2138C84.8241 20.7227 85.5519 20.0158 86.1706 19.1024C86.7893 18.1889 87.2484 17.1299 87.5414 15.9318C87.8386 14.7318 87.8992 13.6615 87.7294 12.7249C87.5565 11.7869 87.1738 11.0608 86.5831 10.5472M97.1763 15.8855C96.9033 16.9909 96.4848 17.8381 95.9207 18.4206C95.3567 19.007 94.6773 19.2989 93.8888 19.2989C93.0821 19.2989 92.5362 19.0143 92.2512 18.4385C91.96 17.8626 91.954 17.0286 92.2208 15.9364C92.4877 14.8443 92.9135 13.9904 93.5019 13.3749C94.0902 12.7593 94.7786 12.4522 95.5683 12.4522C96.3568 12.4522 96.8906 12.75 97.1696 13.3391C97.4486 13.9302 97.4504 14.7794 97.1787 15.8875L97.1763 15.8855ZM98.6016 10.0706L98.1934 11.732C98.0175 11.133 97.6779 10.6564 97.1745 10.3023C96.665 9.94883 96.0402 9.77276 95.2942 9.77276C94.3783 9.77276 93.494 10.0309 92.6497 10.5472C91.8066 11.0635 91.0666 11.7876 90.4358 12.7249C89.805 13.6621 89.344 14.7304 89.0468 15.9285C88.7526 17.1312 88.695 18.1856 88.8709 19.103C89.0486 20.0164 89.4314 20.722 90.0233 21.2145C90.6141 21.7043 91.3759 21.9519 92.3039 21.9519C93.05 21.9519 93.7627 21.7824 94.439 21.4422C95.0984 21.1154 95.6847 20.6359 96.1573 20.037L95.7327 21.7698H98.8807L101.754 10.0739H98.6065L98.6016 10.0706ZM114.97 10.0746L114.972 10.0713H113.037C112.975 10.0713 112.921 10.0746 112.864 10.0759H111.861L111.345 10.857L111.218 11.0423L111.163 11.135L107.084 17.3357L106.241 10.0746H102.9L104.592 21.1086L100.856 26.7547H104.186L105.09 25.3561C105.115 25.315 105.138 25.2806 105.169 25.2369L106.224 23.602L106.254 23.5557L110.981 16.2416L114.966 10.0858L114.972 10.0819H114.97V10.0746Z" fill="#072654"/>
</g>
<defs>
<clipPath id="clip0_1_23798">
<rect width="115" height="26.6087" fill="white" transform="translate(0 0.195557)"/>
</clipPath>
</defs>
</svg>
