<svg width="22" height="22" viewBox="0 0 22 22" fill="none" xmlns="http://www.w3.org/2000/svg">
<g clip-path="url(#clip0_1_22815)">
<path d="M21.5206 5.12672C20.7298 5.48819 19.8911 5.73389 19.0302 5.85625C19.9299 5.301 20.5948 4.43505 20.8989 3.42243C20.0563 3.94219 19.1311 4.314 18.1632 4.52178C17.5566 3.89635 16.776 3.4678 15.9227 3.29181C15.0693 3.11582 14.1828 3.20052 13.3783 3.53492C12.5737 3.86932 11.8883 4.43796 11.4112 5.16694C10.934 5.89593 10.6871 6.75158 10.7025 7.62272C10.7085 7.96697 10.7434 8.29747 10.8204 8.61134C9.09118 8.55679 7.39293 8.13788 5.83669 7.382C4.28045 6.62611 2.90127 5.55028 1.78933 4.22484C1.24835 5.19033 1.09572 6.32572 1.3625 7.39981C1.62928 8.4739 2.29542 9.40593 3.22527 10.0061C2.53746 9.99967 1.86127 9.82795 1.25372 9.50544L1.25455 9.55311C1.27321 10.556 1.6368 11.5218 2.28411 12.2879C2.93143 13.0541 3.82295 13.5739 4.8086 13.7597C4.43876 13.8641 4.05669 13.9189 3.67242 13.9226C3.39657 13.9323 3.12047 13.9123 2.84891 13.8628C3.14457 14.7199 3.69866 15.4642 4.43488 15.9934C5.17111 16.5225 6.05326 16.8104 6.95988 16.8174C5.44358 18.0465 3.55899 18.7318 1.60737 18.7637C1.2512 18.7699 0.909322 18.76 0.566959 18.7223C2.57519 19.9673 4.90114 20.6039 7.26352 20.5549C15.2554 20.4155 19.5091 13.719 19.409 7.98066C19.4056 7.78867 19.3958 7.60342 19.3833 7.41954C20.2292 6.79154 20.9535 6.01456 21.5206 5.12672Z" fill="#03A9F4"/>
</g>
<defs>
<clipPath id="clip0_1_22815">
<rect width="21.1878" height="21.1878" fill="white" transform="translate(0.254395 0.810791) rotate(-1)"/>
</clipPath>
</defs>
</svg>
