<svg width="22" height="16" viewBox="0 0 22 16" fill="none" xmlns="http://www.w3.org/2000/svg">
<path fill-rule="evenodd" clip-rule="evenodd" d="M20.6385 1.67856C20.0371 0.675635 19.401 0.499897 18.1117 0.450487C16.8234 0.386626 13.5871 0.405019 10.784 0.451635C7.97544 0.498341 4.73912 0.587587 3.45527 0.69291C2.17121 0.786429 1.54063 0.981918 0.970906 2.00563C0.389045 3.02692 0.112028 4.77397 0.168198 7.84068L0.16839 7.85117C0.224321 10.9048 0.565388 12.6547 1.1841 13.6455C1.79095 14.6483 2.42693 14.8214 3.71388 14.8853C5.00195 14.9374 8.23972 14.9268 11.0482 14.8801C13.8514 14.8335 17.0862 14.7364 18.3729 14.6428C19.6595 14.5362 20.2887 14.342 20.8531 13.3197C21.4405 12.3088 21.7146 10.5487 21.6587 7.4951L21.6585 7.48461C21.6023 4.41659 21.2641 2.67977 20.6385 1.67856Z" fill="#F44336"/>
<path fill-rule="evenodd" clip-rule="evenodd" d="M8.30012 11.6442L8.15601 3.77612L14.9423 7.59851L8.30012 11.6442Z" fill="#FAFAFA"/>
</svg>
