<svg width="78" height="78" viewBox="0 0 78 78" fill="none" xmlns="http://www.w3.org/2000/svg">
<g filter="url(#filter0_d_1_22011)">
<circle cx="39" cy="39.0214" r="33.3643" fill="#833800"/>
<path d="M38.3003 61.2414C33.9401 61.2414 29.5688 61.1972 25.2086 61.2635C23.2227 61.2967 21.9135 59.9029 21.9357 57.9892C21.9801 54.6707 21.9357 51.3521 21.9579 48.0336C21.969 46.4738 22.8344 45.3455 24.2434 45.0358C24.5097 44.9805 24.7981 44.9694 25.0644 44.9694C33.9069 44.9694 42.7382 44.9694 51.5807 44.9694C53.3447 44.9694 54.6095 46.1088 54.6317 47.8566C54.6761 51.3632 54.6761 54.8587 54.6317 58.3653C54.6095 60.0799 53.3447 61.2304 51.6139 61.2304C47.1761 61.2414 42.7382 61.2414 38.3003 61.2414ZM45.5341 50.5225C46.6768 50.5225 47.7863 50.4893 48.8847 50.5335C49.4838 50.5557 49.4838 50.2349 49.4727 49.8035C49.4616 49.4052 49.5281 49.0402 48.9068 49.0512C47.3869 49.0844 45.878 49.0734 44.358 49.0512C43.9032 49.0402 43.7811 49.2172 43.7922 49.6375C43.8033 51.9605 43.8033 54.2835 43.7922 56.6065C43.7922 57.0047 43.9142 57.1596 44.3358 57.1596C45.8669 57.1485 47.4091 57.1375 48.9401 57.1706C49.5281 57.1817 49.4838 56.8388 49.4838 56.4516C49.4838 56.0645 49.5725 55.6662 48.929 55.6884C47.9527 55.7326 46.9653 55.7105 45.9889 55.6884C45.8225 55.6884 45.5341 55.5224 45.523 55.4118C45.4675 54.903 45.5008 54.3941 45.5008 53.8078C46.2663 53.8078 46.9653 53.7968 47.6642 53.8078C48.0193 53.8189 48.1857 53.6862 48.1524 53.3322C48.1413 53.1884 48.1413 53.0335 48.1524 52.8897C48.1968 52.4804 48.0193 52.3366 47.6088 52.3477C46.932 52.3698 46.2441 52.3587 45.5341 52.3587C45.5341 51.7282 45.5341 51.153 45.5341 50.5225ZM36.3255 49.0734C36.381 49.3057 36.4032 49.4163 36.4364 49.5158C37.1021 51.7172 37.7678 53.9185 38.4446 56.1198C38.8329 57.3698 38.5888 57.1043 39.8536 57.1596C40.3085 57.1817 40.5415 57.049 40.6746 56.5844C41.3514 54.3278 42.0614 52.0822 42.7604 49.8366C42.827 49.6154 42.8713 49.3942 42.9601 49.0734C42.4497 49.0734 42.0281 49.0402 41.6176 49.0955C41.4401 49.1176 41.1961 49.3057 41.1406 49.4716C40.9187 50.1464 40.7523 50.8543 40.5637 51.5402C40.2863 52.5468 40.02 53.5424 39.7426 54.549C39.5762 54.3831 39.5097 54.2171 39.4653 54.0512C39.0548 52.5579 38.6554 51.0645 38.2338 49.5822C38.1783 49.3942 38.023 49.1287 37.8787 49.1066C37.3906 49.0402 36.9024 49.0734 36.3255 49.0734ZM27.128 53.1109C27.128 54.2946 27.128 55.4671 27.128 56.6507C27.128 56.9383 27.1502 57.1596 27.5274 57.1596C29.1583 57.1485 30.7782 57.1596 32.4091 57.1375C32.5311 57.1375 32.6975 56.9273 32.753 56.7724C32.8085 56.6065 32.753 56.4074 32.7752 56.2304C32.8196 55.8211 32.6421 55.6884 32.2316 55.6884C31.2885 55.7105 30.3455 55.6773 29.4024 55.6994C28.9808 55.7105 28.8255 55.5888 28.8366 55.1463C28.8588 53.4871 28.8588 51.8278 28.8477 50.1685C28.8366 48.9406 29.0363 49.0844 27.716 49.0512C27.2833 49.0402 27.128 49.184 27.1391 49.6154C27.1391 50.788 27.128 51.9495 27.128 53.1109ZM35.3713 53.1109C35.3713 52.0933 35.3824 51.0866 35.3713 50.0689C35.3603 48.9296 35.5267 49.1066 34.3728 49.0623C33.8292 49.0402 33.685 49.2282 33.6961 49.7481C33.7182 51.8499 33.6961 53.9516 33.7071 56.0534C33.7182 57.2923 33.5185 57.1375 34.8277 57.1817C35.2826 57.1928 35.3935 57.0268 35.3824 56.6065C35.3603 55.4229 35.3713 54.2614 35.3713 53.1109Z" fill="white"/>
<path d="M38.2671 43.1553C34.6059 43.1553 30.9446 43.1443 27.2834 43.1664C26.8507 43.1664 26.6177 43.0226 26.418 42.6575C21.5585 34.1178 26.773 23.5648 36.5363 22.2042C44.0696 21.1533 51.1813 26.7506 51.9357 34.3058C52.2353 37.2815 51.6584 40.058 50.1939 42.6575C49.9831 43.0226 49.7501 43.1664 49.3174 43.1664C45.6229 43.1553 41.9505 43.1553 38.2671 43.1553ZM35.2715 34.5602C35.2604 35.9651 35.2493 37.3589 35.2604 38.7638C35.2715 39.7151 35.7708 40.0027 36.5807 39.516C38.844 38.1222 41.0962 36.7173 43.3484 35.3014C44.0141 34.881 44.0252 34.3501 43.3484 33.9297C41.0851 32.5138 38.8107 31.0979 36.5252 29.693C35.7819 29.2395 35.2715 29.5382 35.2604 30.4121C35.2715 31.8058 35.2715 33.1886 35.2715 34.5602Z" fill="white"/>
<path d="M19.2286 35.8103C19.2286 26.8945 25.3418 19.118 34.0844 17.2817C41.4513 15.733 47.8751 17.7463 52.7678 23.4985C57.949 29.5935 58.6924 36.4961 55.6302 43.8412C55.6081 43.8965 55.5859 43.9408 55.5637 43.9961C55.3862 44.3611 55.0977 44.5492 54.7094 44.3501C54.3211 44.151 54.31 43.8191 54.4875 43.4541C55.7412 40.8877 56.3181 38.1554 56.2072 35.3125C56.0407 30.8103 54.432 26.8613 51.3144 23.587C48.0637 20.1799 44.0696 18.2773 39.3544 18.0118C34.1732 17.7242 29.6576 19.3724 25.9187 22.9564C22.0578 26.64 20.2715 31.2196 20.4047 36.5183C20.4601 38.8966 21.0371 41.1864 22.0689 43.3434C22.2575 43.7417 22.3573 44.0846 21.9135 44.339C21.5474 44.5602 21.2479 44.3833 20.9816 43.8412C19.8277 41.4408 19.2286 38.7085 19.2286 35.8103Z" fill="white"/>
</g>
<defs>
<filter id="filter0_d_1_22011" x="0.692885" y="0.714247" width="76.6142" height="76.6143" filterUnits="userSpaceOnUse" color-interpolation-filters="sRGB">
<feFlood flood-opacity="0" result="BackgroundImageFix"/>
<feColorMatrix in="SourceAlpha" type="matrix" values="0 0 0 0 0 0 0 0 0 0 0 0 0 0 0 0 0 0 127 0" result="hardAlpha"/>
<feOffset/>
<feGaussianBlur stdDeviation="2.47143"/>
<feComposite in2="hardAlpha" operator="out"/>
<feColorMatrix type="matrix" values="0 0 0 0 1 0 0 0 0 1 0 0 0 0 1 0 0 0 0.5 0"/>
<feBlend mode="normal" in2="BackgroundImageFix" result="effect1_dropShadow_1_22011"/>
<feBlend mode="normal" in="SourceGraphic" in2="effect1_dropShadow_1_22011" result="shape"/>
</filter>
</defs>
</svg>
