<svg width="46" height="48" viewBox="0 0 46 48" fill="none" xmlns="http://www.w3.org/2000/svg">
<path d="M44.7097 4.4648C44.5606 4.39698 44.3952 4.37353 44.2332 4.39726C44.0712 4.42098 43.9194 4.49088 43.7961 4.59859L41.2899 6.79551C38.1094 3.74229 34.1449 1.63043 29.8366 0.694486C25.5283 -0.241458 21.0449 0.0351478 16.8843 1.49358C12.7238 2.95202 9.04888 5.53519 6.26787 8.95621C3.48685 12.3772 1.70855 16.5022 1.13047 20.8729C0.552394 25.2436 1.19717 29.689 2.99318 33.7154C4.78919 37.7418 7.66614 41.1915 11.3045 43.6814C14.9428 46.1714 19.2002 47.604 23.6037 47.8203C28.0071 48.0366 32.3844 47.028 36.2492 44.9066C36.4474 44.7979 36.5943 44.6149 36.6576 44.3979C36.7209 44.1809 36.6954 43.9476 36.5867 43.7494C36.478 43.5512 36.295 43.4043 36.0779 43.341C35.8609 43.2777 35.6276 43.3032 35.4294 43.4119C31.8436 45.3855 27.7814 46.3275 23.693 46.1337C19.6046 45.9398 15.6497 44.6176 12.2668 42.3136C8.88382 40.0096 6.20495 36.8139 4.5271 33.0806C2.84925 29.3473 2.23796 25.2223 2.761 21.1628C3.28404 17.1034 4.92097 13.2681 7.49034 10.082C10.0597 6.89594 13.4612 4.48359 17.3176 3.11237C21.1741 1.74115 25.335 1.46462 29.339 2.31342C33.343 3.16223 37.0338 5.10322 40.0022 7.92123L36.9821 10.563C36.8514 10.6769 36.7585 10.828 36.7158 10.996C36.6732 11.1641 36.6829 11.3412 36.7435 11.5037C36.8042 11.6661 36.913 11.8062 37.0553 11.9052C37.1977 12.0042 37.3669 12.0574 37.5403 12.0577H44.3577C44.5837 12.0577 44.8005 11.9679 44.9603 11.8081C45.1201 11.6483 45.2099 11.4315 45.2099 11.2055V5.24028C45.2098 5.07663 45.1625 4.91649 45.0738 4.77897C44.9851 4.64145 44.8587 4.53238 44.7097 4.4648Z" fill="#F4F4F4"/>
</svg>
