<svg width="43" height="44" viewBox="0 0 43 44" fill="none" xmlns="http://www.w3.org/2000/svg">
<path d="M35.8981 5.3111C35.8981 5.14016 35.8253 4.97622 35.6958 4.85534C35.5663 4.73447 35.3907 4.66657 35.2075 4.66657H30.1433C29.9602 4.66657 29.7845 4.73447 29.655 4.85534C29.5255 4.97622 29.4528 5.14016 29.4528 5.3111C29.4528 5.48204 29.5255 5.64598 29.655 5.76685C29.7845 5.88772 29.9602 5.95563 30.1433 5.95563H31.0641C31.4923 5.95614 31.9099 6.0803 32.2596 6.31109C32.6092 6.54189 32.8738 6.868 33.017 7.24469H30.1433C29.9602 7.24469 29.7845 7.3126 29.655 7.43347C29.5255 7.55434 29.4528 7.71828 29.4528 7.88922C29.4528 8.06016 29.5255 8.2241 29.655 8.34497C29.7845 8.46585 29.9602 8.53375 30.1433 8.53375H33.017C32.8738 8.91044 32.6092 9.23654 32.2596 9.46733C31.9099 9.69812 31.4923 9.8223 31.0641 9.82282H30.1433C30.0081 9.82281 29.8758 9.85987 29.763 9.92938C29.6501 9.9989 29.5616 10.0978 29.5084 10.2139C29.4552 10.3299 29.4397 10.458 29.4638 10.5822C29.4879 10.7064 29.5505 10.8212 29.6439 10.9125L33.327 14.5116C33.4535 14.6352 33.6274 14.7068 33.8106 14.7108C33.9937 14.7147 34.171 14.6505 34.3034 14.5325C34.4359 14.4144 34.5126 14.252 34.5168 14.0811C34.521 13.9102 34.4523 13.7447 34.3258 13.6211L31.7015 11.0568C32.3754 10.9373 32.9961 10.6337 33.4848 10.1845C33.9736 9.73528 34.3083 9.16071 34.4467 8.53367H35.2075C35.3907 8.53367 35.5663 8.46576 35.6958 8.34489C35.8253 8.22402 35.8981 8.06008 35.8981 7.88914C35.8981 7.7182 35.8253 7.55426 35.6958 7.43338C35.5663 7.31251 35.3907 7.2446 35.2075 7.2446H34.4475C34.3451 6.77703 34.1323 6.33665 33.8245 5.95554H35.2075C35.3907 5.95554 35.5663 5.88764 35.6958 5.76676C35.8253 5.64589 35.8981 5.48204 35.8981 5.3111ZM19.5546 21.6337V17.963C19.5546 17.792 19.4818 17.6281 19.3523 17.5072C19.2228 17.3864 19.0472 17.3185 18.864 17.3185C18.6809 17.3185 18.5052 17.3864 18.3757 17.5072C18.2462 17.6281 18.1735 17.792 18.1735 17.963V21.6218L15.1424 20.5371C14.9719 20.4779 14.7832 20.4839 14.6174 20.5538C14.4516 20.6237 14.3221 20.7519 14.2569 20.9104C14.1918 21.069 14.1963 21.2451 14.2695 21.4006C14.3428 21.556 14.4788 21.6782 14.648 21.7406L17.7631 22.8555L15.5185 25.6509C15.4086 25.7877 15.3615 25.9596 15.3874 26.1288C15.4134 26.2981 15.5103 26.4507 15.6569 26.5533C15.8035 26.6558 15.9877 26.6998 16.169 26.6755C16.3503 26.6513 16.5139 26.5609 16.6237 26.4241L18.8781 23.6165L21.262 26.4367C21.3754 26.5709 21.5413 26.6575 21.7232 26.6776C21.9051 26.6976 22.0881 26.6494 22.2319 26.5435C22.3757 26.4376 22.4685 26.2828 22.49 26.113C22.5115 25.9432 22.4598 25.7725 22.3463 25.6382L19.9947 22.8562L23.2195 21.7433C23.3889 21.6824 23.5258 21.5617 23.6006 21.4073C23.6754 21.2529 23.682 21.0772 23.619 20.9183C23.5561 20.7594 23.4286 20.63 23.2642 20.5581C23.0998 20.4863 22.9117 20.4777 22.7406 20.5343L19.5546 21.6337ZM32.6754 0.00024418C31.1713 0.000262219 29.6872 0.322701 28.3377 0.942698C26.9882 1.56269 25.8092 2.46368 24.8918 3.57619C22.9068 2.66716 21.0583 1.51885 19.3936 0.16069C19.2629 0.0534896 19.0937 -0.00372688 18.9198 0.00047935C18.7459 0.00468558 18.58 0.0700046 18.4555 0.183377C16.8068 1.67463 14.9167 2.91425 12.8548 3.85669C8.62741 5.80592 4.41328 6.26286 1.62227 6.30299C1.44099 6.3056 1.26809 6.37465 1.14089 6.49522C1.01368 6.6158 0.942385 6.77822 0.942383 6.94743V19.9721C0.942383 24.929 2.63649 29.7907 5.84174 34.0318C8.94056 38.1322 13.3652 41.5569 18.6371 43.936C18.7308 43.9783 18.8336 44.0003 18.9377 44.0003C19.0418 44.0003 19.1446 43.9783 19.2383 43.936C24.5103 41.5569 28.9348 38.1322 32.0337 34.0318C35.2389 29.7908 36.9331 24.929 36.9331 19.9721V17.4507C38.942 16.5502 40.5636 15.0396 41.5322 13.1662C42.5007 11.2929 42.7587 9.16808 42.2638 7.13998C41.769 5.11189 40.5507 3.30083 38.8086 2.00363C37.0665 0.706439 34.904 5.18624e-05 32.6754 0.00024418ZM35.5519 19.9721C35.5519 24.6615 33.945 29.2663 30.905 33.2888C27.9996 37.1332 23.8668 40.3608 18.9376 42.6381C14.0084 40.3608 9.87559 37.1332 6.97022 33.2888C3.93025 29.2664 2.32343 24.6615 2.32343 19.9721V7.57478C5.23699 7.46925 9.34063 6.91495 13.4666 5.01246C15.4675 4.09629 17.3177 2.9176 18.9608 1.51223C20.545 2.74272 22.2762 3.79819 24.1201 4.65763C23.7387 5.28342 23.4381 5.94914 23.2244 6.64089C21.9074 6.03363 20.6407 5.33554 19.435 4.55244C19.3157 4.47472 19.1731 4.43416 19.0276 4.43655C18.8822 4.43894 18.7412 4.48416 18.6249 4.56576C17.3271 5.47445 15.9417 6.26877 14.4866 6.9385C11.5742 8.26676 8.4454 9.13353 5.22824 9.5033C5.06162 9.5232 4.90848 9.5991 4.7975 9.71679C4.68652 9.83449 4.62531 9.9859 4.62533 10.1427V19.9721C4.62533 24.2154 6.08676 28.3921 8.8517 32.0508C11.2524 35.2279 14.6244 37.9939 18.6031 40.0499C18.7055 40.1028 18.8206 40.1305 18.9376 40.1305C19.0546 40.1305 19.1697 40.1028 19.2721 40.0499C23.2507 37.9939 26.6228 35.2279 29.0235 32.0509C31.7885 28.3921 33.25 24.2154 33.25 19.9721V18.3402C34.031 18.2983 34.8038 18.1692 35.5519 17.9554V19.9721ZM31.8688 18.3252V19.9721C31.8688 23.9478 30.4947 27.8677 27.8948 31.308C25.6808 34.2379 22.5894 36.8042 18.9376 38.7467C15.2859 36.8042 12.1944 34.2379 9.98037 31.3079C7.38051 27.8678 6.00637 23.9478 6.00637 19.9721V10.7046C9.16478 10.2844 12.2328 9.40351 15.0982 8.09427C16.481 7.45746 17.8043 6.71398 19.0545 5.87158C20.2919 6.64766 21.5875 7.3397 22.9313 7.94233C22.7516 9.17715 22.8432 10.4332 23.2005 11.6339C23.5578 12.8346 24.1733 13.9548 25.0095 14.9263C25.8457 15.8978 26.8851 16.7002 28.0644 17.2845C29.2437 17.8689 30.5381 18.223 31.8687 18.3253L31.8688 18.3252ZM32.6754 17.0673C31.0037 17.0673 29.3695 16.6046 27.9795 15.7377C26.5895 14.8709 25.5061 13.6388 24.8664 12.1973C24.2266 10.7558 24.0592 9.16956 24.3854 7.63925C24.7115 6.10894 25.5165 4.70326 26.6986 3.59997C27.8807 2.49667 29.3868 1.74531 31.0264 1.4409C32.666 1.13649 34.3655 1.29271 35.91 1.88979C37.4545 2.48688 38.7746 3.49802 39.7034 4.79534C40.6321 6.09267 41.1279 7.61791 41.1279 9.1782C41.1254 11.2698 40.2341 13.275 38.6495 14.754C37.0649 16.233 34.9164 17.0649 32.6754 17.0673Z" fill="#F4F4F4"/>
</svg>
